<?xml version="1.0" encoding="utf-8"?>
<!-- Generator: Adobe Illustrator 11.0, SVG Export Plug-In  -->
<!DOCTYPE svg PUBLIC "-//W3C//DTD SVG 1.0//EN"    "http://www.w3.org/TR/2001/REC-SVG-20010904/DTD/svg10.dtd" [
	<!ENTITY ns_flows "http://ns.adobe.com/Flows/1.0/">
	<!ENTITY ns_svg "http://www.w3.org/2000/svg">
	<!ENTITY ns_xlink "http://www.w3.org/1999/xlink">
]>
<svg  xmlns="&ns_svg;" xmlns:xlink="&ns_xlink;" xmlns:a="http://ns.adobe.com/AdobeSVGViewerExtensions/3.0/"
	 width="45" height="71" viewBox="-0.625 -0.5 45 71" xml:space="preserve">
	<defs>
	</defs>
	<g>
		<path fill="#FFFFFF" d="M21.875,0C9.776,0,0,9.775,0,21.875S10.938,50.313,21.875,70C32.813,50.313,43.75,33.975,43.75,21.875
			S33.975,0,21.875,0z M21.949,40.352c-10,0-18.106-8.106-18.106-18.106S11.949,4.139,21.949,4.139s18.105,8.106,18.105,18.106
			S31.95,40.352,21.949,40.352z"/>
		<path fill="#FFFFFF" d="M35.398,22.245c0,7.469-6.055,13.524-13.522,13.524S8.352,29.714,8.352,22.245H35.398z"/>
		<circle fill="#FFFFFF" cx="15.151" cy="14.042" r="3.473"/> 
		<circle fill="#FFFFFF" cx="28.6" cy="14.042" r="3.473"/> 
	</g>
</svg>
