<?xml version="1.0" encoding="utf-8"?>
<!-- Generator: Adobe Illustrator 11.0, SVG Export Plug-In  -->
<!DOCTYPE svg PUBLIC "-//W3C//DTD SVG 1.0//EN"    "http://www.w3.org/TR/2001/REC-SVG-20010904/DTD/svg10.dtd" [
	<!ENTITY ns_flows "http://ns.adobe.com/Flows/1.0/">
	<!ENTITY ns_svg "http://www.w3.org/2000/svg">
	<!ENTITY ns_xlink "http://www.w3.org/1999/xlink">
]>
<svg  xmlns="&ns_svg;" xmlns:xlink="&ns_xlink;" xmlns:a="http://ns.adobe.com/AdobeSVGViewerExtensions/3.0/"
	 width="48" height="48" viewBox="0 0 48 48" xml:space="preserve">
	<defs>
	</defs>
	<g>
		<rect fill="#538FB4" width="48" height="48"/> 
		<path fill="#FFFFFF" d="M41.334,48c0-13.255-7.761-24-17.334-24S6.666,34.745,6.666,48H41.334z"/>
		<circle fill="#FFFFFF" cx="24" cy="12.917" r="8.917"/> 
		<g>
			<g>
				<path fill="#538FB4" d="M24,0C10.744,0,0,10.745,0,24s10.744,24,24,24c13.254,0,24-10.745,24-24S37.254,0,24,0z M24,45
					C12.402,45,3,35.598,3,24C3,12.401,12.402,3,24,3s21,9.401,21,21C45,35.598,35.598,45,24,45z"/>
			</g>
		</g>
		<polygon fill="#538FB4" points="0,48 0,35.667 24,48 "/>
		<polygon fill="#538FB4" points="48,48 48,35.667 24,48 "/>
	</g>
</svg>
